<?xml version="1.0" encoding="UTF-8"?>
<svg width="120px" height="36px" viewBox="0 0 120 36" version="1.1" xmlns="http://www.w3.org/2000/svg" xmlns:xlink="http://www.w3.org/1999/xlink">
    <!-- Generator: Sketch 55.2 (78181) - https://sketchapp.com -->
    <title>btn-download-app_store</title>
    <desc>Created with Sketch.</desc>
    <g id="btn-download-app_store" stroke="none" stroke-width="1" fill="none" fill-rule="evenodd">
        <g id="download-on-the-app-store" fill="#FFFFFF">
            <g id="apple-logo" transform="translate(10.826667, 5.400000)">
                <path d="M15.7554844,12.4056 C15.72932,9.5049 18.1364489,8.0937 18.24652,8.028 C16.8832622,6.0453 14.7702578,5.7744 14.0277289,5.7528 C12.2530578,5.5665 10.5316178,6.8121 9.62759111,6.8121 C8.70552,6.8121 7.31339111,5.7708 5.81299556,5.8014 C3.88224,5.8311 2.07599111,6.9462 1.08535111,8.6778 C-0.959084444,12.2085 0.565671111,17.397 2.52439556,20.2509 C3.50420889,21.6486 4.64912889,23.2092 6.14772,23.1543 C7.61383111,23.094 8.16148,22.2219 9.93073778,22.2219 C11.6837556,22.2219 12.1980222,23.1543 13.7263867,23.1192 C15.2998622,23.094 16.2905022,21.7152 17.2360311,20.3049 C18.36832,18.7029 18.82304,17.1252 18.8410844,17.0442 C18.8040933,17.0316 15.7852578,15.8823 15.7554844,12.4056 L15.7554844,12.4056 Z" id="Shape"></path>
                <path d="M12.8683733,3.8754 C13.6569156,2.8917 14.1964444,1.5534 14.0466756,0.1953 C12.9053644,0.2457 11.4780489,0.9828 10.6561244,1.9449 C9.92893333,2.7927 9.27933333,4.1823 9.44714667,5.4891 C10.7292044,5.5845 12.0455467,4.8438 12.8683733,3.8754 L12.8683733,3.8754 Z" id="Shape"></path>
            </g>
            <g id="app-store" transform="translate(37.293333, 16.200000)">
                <path d="M72.3185244,7.4268 C72.3185244,7.7706 72.2959689,8.0604 72.2481511,8.2971 L66.4775378,8.2971 C66.5000933,9.1503 66.77888,9.8028 67.3148,10.2528 C67.8010978,10.6551 68.4299467,10.8567 69.2022489,10.8567 C70.0566533,10.8567 70.8361733,10.7208 71.5372,10.4481 L71.8385422,11.7801 C71.0193244,12.1365 70.0521422,12.3138 68.9360933,12.3138 C67.5935867,12.3138 66.5397911,11.9196 65.7729022,11.1321 C65.0078178,10.3446 64.6243733,9.2871 64.6243733,7.9605 C64.6243733,6.6582 64.9807511,5.5737 65.6944089,4.7088 C66.4414489,3.7854 67.4510356,3.3237 68.7213644,3.3237 C69.9691378,3.3237 70.9137644,3.7854 71.5552444,4.7088 C72.0631956,5.4423 72.3185244,6.3495 72.3185244,7.4268 L72.3185244,7.4268 Z M70.4843067,6.9291 C70.4969378,6.3603 70.3715289,5.8689 70.1107867,5.454 C69.7778667,4.9203 69.2663067,4.6539 68.5779111,4.6539 C67.9490622,4.6539 67.4375022,4.914 67.04684,5.436 C66.7265511,5.8509 66.5361822,6.3486 66.4775378,6.9282 L70.4843067,6.9282 L70.4843067,6.9291 Z" id="Shape"></path>
                <path d="M63.7158356,5.2047 C63.5254667,5.1696 63.3224667,5.1516 63.1095422,5.1516 C62.4328756,5.1516 61.9095867,5.4063 61.54148,5.9166 C61.2211911,6.3666 61.0605956,6.9354 61.0605956,7.6221 L61.0605956,12.1536 L59.13796,12.1536 L59.1560044,6.237 C59.1560044,5.2416 59.1316444,4.3353 59.0838267,3.5181 L60.7592533,3.5181 L60.8296267,5.1705 L60.8828578,5.1705 C61.0858578,4.6026 61.4061467,4.1454 61.8446267,3.8025 C62.2731822,3.4938 62.7360222,3.3399 63.2349511,3.3399 C63.4126889,3.3399 63.5732844,3.3525 63.7158356,3.375 L63.7158356,5.2047 L63.7158356,5.2047 Z" id="Shape"></path>
                <path d="M57.4634356,7.7643 C57.4634356,9.0918 57.0826978,10.1817 56.3230267,11.034 C55.5263644,11.9115 54.46896,12.3489 53.1508133,12.3489 C51.8804844,12.3489 50.8690933,11.9286 50.1148356,11.088 C49.3605778,10.2474 48.9834489,9.1863 48.9834489,7.9074 C48.9834489,6.5691 49.3714044,5.4729 50.1500222,4.6206 C50.9268356,3.7674 51.9752178,3.3408 53.2933644,3.3408 C54.5636933,3.3408 55.5859111,3.7611 56.3573111,4.6026 C57.0953289,5.4189 57.4634356,6.4728 57.4634356,7.7643 L57.4634356,7.7643 Z M55.46772,7.8264 C55.46772,7.0299 55.2972,6.3468 54.9516489,5.7771 C54.5483556,5.0877 53.9718356,4.7439 53.2247956,4.7439 C52.4515911,4.7439 51.8642444,5.0886 51.4609511,5.7771 C51.1154,6.3477 50.94488,7.0416 50.94488,7.8624 C50.94488,8.6589 51.1154,9.342 51.4609511,9.9108 C51.8768756,10.6002 52.4579067,10.944 53.2076533,10.944 C53.9420622,10.944 54.5185822,10.593 54.9345067,9.8928 C55.28908,9.3123 55.46772,8.622 55.46772,7.8264 L55.46772,7.8264 Z" id="Shape"></path>
                <path d="M47.8971733,4.9572 L45.7769511,4.9572 L45.7769511,9.1503 C45.7769511,10.2168 46.1504711,10.7496 46.8993156,10.7496 C47.2430622,10.7496 47.5281644,10.7199 47.75372,10.6605 L47.8069511,12.1176 C47.4280178,12.2589 46.9290889,12.33 46.3110667,12.33 C45.5513956,12.33 44.9577333,12.0987 44.5291778,11.637 C44.1024267,11.1744 43.8876978,10.3986 43.8876978,9.3087 L43.8876978,4.9554 L42.6245867,4.9554 L42.6245867,3.5154 L43.8876978,3.5154 L43.8876978,1.9341 L45.7769511,1.3653 L45.7769511,3.5154 L47.8971733,3.5154 L47.8971733,4.9572 L47.8971733,4.9572 Z" id="Shape"></path>
                <path d="M41.5374089,8.7948 C41.5374089,9.8136 41.1828356,10.6425 40.4709822,11.2824 C39.6887556,11.9817 38.5997733,12.3309 37.2004267,12.3309 C35.9084444,12.3309 34.8726933,12.0825 34.0886622,11.5848 L34.53436,9.9855 C35.37884,10.4949 36.3054222,10.7505 37.3150089,10.7505 C38.0394933,10.7505 38.6033822,10.5867 39.00848,10.2609 C39.4117733,9.9351 39.6129689,9.4977 39.6129689,8.9523 C39.6129689,8.4663 39.44696,8.0568 39.11404,7.7247 C38.7829244,7.3926 38.2298622,7.0839 37.45756,6.7986 C35.3553822,6.0165 34.3051956,4.8708 34.3051956,3.3642 C34.3051956,2.3796 34.6733022,1.5723 35.4104178,0.9441 C36.1448267,0.315 37.12464,0.0009 38.3498578,0.0009 C39.4424489,0.0009 40.3500844,0.1908 41.0745689,0.5697 L40.5936844,2.1339 C39.9170178,1.7667 39.1519333,1.5831 38.2957244,1.5831 C37.6190578,1.5831 37.0903556,1.7496 36.7114222,2.0808 C36.3911333,2.3769 36.2305378,2.7378 36.2305378,3.1653 C36.2305378,3.6387 36.4136889,4.0302 36.7817956,4.338 C37.1020844,4.6224 37.6840178,4.9302 38.5284978,5.2623 C39.5615422,5.6772 40.3203111,6.1623 40.8084133,6.7185 C41.2947111,7.2729 41.5374089,7.9668 41.5374089,8.7948 L41.5374089,8.7948 Z" id="Shape"></path>
                <path d="M30.4039867,7.7292 C30.4039867,9.198 30.0061067,10.359 29.2094444,11.2113 C28.4975911,11.97 27.6125111,12.3489 26.5560089,12.3489 C25.4156,12.3489 24.5963822,11.9403 24.0983556,11.1231 L24.0622667,11.1231 L24.0622667,15.6726 L22.1387289,15.6726 L22.1387289,6.3603 C22.1387289,5.4369 22.1143689,4.4892 22.0674533,3.5172 L23.75912,3.5172 L23.8664844,4.8861 L23.9025733,4.8861 C24.5431511,3.8547 25.5166489,3.3399 26.8239689,3.3399 C27.8443822,3.3399 28.6969822,3.7422 29.3808667,4.5477 C30.0620444,5.3541 30.4039867,6.4143 30.4039867,7.7292 L30.4039867,7.7292 Z M28.44436,7.7994 C28.44436,6.9588 28.2539911,6.2658 27.8732533,5.7204 C27.4573289,5.1516 26.9006578,4.8672 26.1996311,4.8672 C25.72416,4.8672 25.2938,5.0256 24.9076489,5.3379 C24.5214978,5.6529 24.2697778,6.0642 24.1515867,6.5736 C24.0929422,6.8112 24.0622667,7.0056 24.0622667,7.1586 L24.0622667,8.5986 C24.0622667,9.2268 24.2553422,9.7569 24.6396889,10.1898 C25.02584,10.6218 25.5274756,10.8387 26.1464,10.8387 C26.8708844,10.8387 27.4347733,10.5597 27.8380667,10.0035 C28.2422622,9.4464 28.44436,8.712 28.44436,7.7994 L28.44436,7.7994 Z" id="Shape"></path>
                <path d="M20.44616,7.7292 C20.44616,9.198 20.04828,10.359 19.25252,11.2113 C18.5397644,11.97 17.6546844,12.3489 16.5981822,12.3489 C15.4577733,12.3489 14.6385556,11.9403 14.1396267,11.1231 L14.1035378,11.1231 L14.1035378,15.6726 L12.18,15.6726 L12.18,6.3603 C12.18,5.4369 12.15564,4.4892 12.1087244,3.5172 L13.8003911,3.5172 L13.9077556,4.8861 L13.9438444,4.8861 C14.5853244,3.8547 15.5588222,3.3399 16.86524,3.3399 C17.8865556,3.3399 18.7391556,3.7422 19.4212356,4.5477 C20.10512,5.3541 20.44616,6.4143 20.44616,7.7292 L20.44616,7.7292 Z M18.4865333,7.7994 C18.4865333,6.9588 18.2970667,6.2658 17.9163289,5.7204 C17.5004044,5.1516 16.9419289,4.8672 16.2418044,4.8672 C15.7672356,4.8672 15.3359733,5.0256 14.9507244,5.3379 C14.5645733,5.6529 14.3119511,6.0642 14.19376,6.5736 C14.1342133,6.8112 14.10444,7.0056 14.10444,7.1586 L14.10444,8.5986 C14.10444,9.2268 14.2975156,9.7569 14.6836667,10.1898 C15.0698178,10.6227 15.5714533,10.8387 16.1885733,10.8387 C16.9130578,10.8387 17.4769467,10.5597 17.88024,10.0035 C18.2844356,9.4464 18.4865333,8.712 18.4865333,7.7994 L18.4865333,7.7994 Z" id="Shape"></path>
                <path d="M10.5063778,12.1536 L8.45743111,12.1536 L7.33506667,8.6355 L3.43385778,8.6355 L2.36472444,12.1536 L0.369911111,12.1536 L4.23503111,0.1764 L6.62231111,0.1764 L10.5063778,12.1536 L10.5063778,12.1536 Z M6.99673333,7.1595 L5.98173333,4.032 C5.87436889,3.7125 5.67317333,2.9601 5.37634222,1.7757 L5.34025333,1.7757 C5.22206222,2.2851 5.03169333,3.0375 4.77004889,4.032 L3.77309333,7.1595 L6.99673333,7.1595 L6.99673333,7.1595 Z" id="Shape"></path>
            </g>
        </g>
        <path d="M37.7426758,12 L37.7426758,5.6015625 L39.5488281,5.6015625 C40.1054715,5.6015625 40.5976541,5.72460814 41.0253906,5.97070312 C41.4531271,6.21679811 41.7834461,6.56689226 42.0163574,7.02099609 C42.2492687,7.47509993 42.3671875,7.99657909 42.3701172,8.58544922 L42.3701172,8.99414062 C42.3701172,9.59765927 42.2536633,10.1264626 42.020752,10.5805664 C41.7878406,11.0346702 41.4553244,11.3832996 41.0231934,11.6264648 C40.5910623,11.8696301 40.0878935,11.9941406 39.5136719,12 L37.7426758,12 Z M38.5864258,6.29589844 L38.5864258,11.3100586 L39.4741211,11.3100586 C40.124515,11.3100586 40.6306134,11.1079122 40.9924316,10.7036133 C41.3542499,10.2993144 41.5351562,9.72363655 41.5351562,8.9765625 L41.5351562,8.60302734 C41.5351562,7.87646121 41.3645037,7.31176959 41.0231934,6.90893555 C40.6818831,6.5061015 40.197757,6.30175784 39.5708008,6.29589844 L38.5864258,6.29589844 Z M44.4003906,12 L43.5874023,12 L43.5874023,7.24511719 L44.4003906,7.24511719 L44.4003906,12 Z M43.5214844,5.98388672 C43.5214844,5.85205012 43.5617672,5.74072311 43.642334,5.64990234 C43.7229008,5.55908158 43.8422844,5.51367188 44.0004883,5.51367188 C44.1586922,5.51367188 44.2788082,5.55908158 44.3608398,5.64990234 C44.4428715,5.74072311 44.4838867,5.85205012 44.4838867,5.98388672 C44.4838867,6.11572332 44.4428715,6.2255855 44.3608398,6.31347656 C44.2788082,6.40136763 44.1586922,6.4453125 44.0004883,6.4453125 C43.8422844,6.4453125 43.7229008,6.40136763 43.642334,6.31347656 C43.5617672,6.2255855 43.5214844,6.11572332 43.5214844,5.98388672 Z M48.4697266,10.7387695 C48.4697266,10.5190419 48.3869637,10.3483893 48.2214355,10.2268066 C48.0559074,10.105224 47.767336,10.0004887 47.3557129,9.91259766 C46.9440897,9.82470659 46.6174328,9.7192389 46.3757324,9.59619141 C46.134032,9.47314392 45.9553228,9.32666101 45.8395996,9.15673828 C45.7238764,8.98681556 45.6660156,8.78466914 45.6660156,8.55029297 C45.6660156,8.16064258 45.8308089,7.83105604 46.1604004,7.56152344 C46.4899919,7.29199084 46.9111302,7.15722656 47.4238281,7.15722656 C47.9628933,7.15722656 48.4001448,7.29638533 48.7355957,7.57470703 C49.0710466,7.85302874 49.2387695,8.20898221 49.2387695,8.64257812 L48.4213867,8.64257812 C48.4213867,8.41992076 48.3269052,8.22802815 48.1379395,8.06689453 C47.9489737,7.90576091 47.7109389,7.82519531 47.4238281,7.82519531 C47.1279282,7.82519531 46.8964852,7.88964779 46.7294922,8.01855469 C46.5624992,8.14746158 46.4790039,8.31591693 46.4790039,8.52392578 C46.4790039,8.72021583 46.5566398,8.86816356 46.7119141,8.96777344 C46.8671883,9.06738331 47.147703,9.1625972 47.5534668,9.25341797 C47.9592305,9.34423874 48.2880847,9.45263609 48.5400391,9.57861328 C48.7919934,9.70459047 48.9787592,9.85620029 49.1003418,10.0334473 C49.2219244,10.2106942 49.2827148,10.4267565 49.2827148,10.6816406 C49.2827148,11.1064474 49.1127947,11.4470202 48.7729492,11.7033691 C48.4331038,11.9597181 47.9921902,12.0878906 47.4501953,12.0878906 C47.069334,12.0878906 46.7324233,12.0205085 46.4394531,11.8857422 C46.1464829,11.7509759 45.9172372,11.5627453 45.751709,11.3210449 C45.5861808,11.0793445 45.503418,10.8178725 45.503418,10.5366211 L46.3164062,10.5366211 C46.3310548,10.8090834 46.4401845,11.0251457 46.6437988,11.1848145 C46.8474131,11.3444832 47.1162093,11.4243164 47.4501953,11.4243164 C47.757814,11.4243164 48.0046377,11.3620612 48.1906738,11.2375488 C48.3767099,11.1130365 48.4697266,10.9467784 48.4697266,10.7387695 Z M54.3583984,9.67529297 C54.3583984,10.3989294 54.1928727,10.9819314 53.8618164,11.4243164 C53.5307601,11.8667014 53.0825224,12.0878906 52.5170898,12.0878906 C51.9399385,12.0878906 51.4858415,11.904787 51.1547852,11.5385742 L51.1547852,13.828125 L50.3417969,13.828125 L50.3417969,7.24511719 L51.0844727,7.24511719 L51.1240234,7.77246094 C51.4550798,7.36230264 51.9150361,7.15722656 52.5039062,7.15722656 C53.0751982,7.15722656 53.5270979,7.37255644 53.8596191,7.80322266 C54.1921403,8.23388887 54.3583984,8.83300397 54.3583984,9.60058594 L54.3583984,9.67529297 Z M53.5454102,9.58300781 C53.5454102,9.04687232 53.4311535,8.62353671 53.2026367,8.31298828 C52.97412,8.00243985 52.6606465,7.84716797 52.262207,7.84716797 C51.7700171,7.84716797 51.4008801,8.0654275 51.1547852,8.50195312 L51.1547852,10.7739258 C51.3979504,11.2075217 51.770017,11.4243164 52.2709961,11.4243164 C52.6606465,11.4243164 52.9704578,11.2697769 53.2004395,10.9606934 C53.4304211,10.6516098 53.5454102,10.1923859 53.5454102,9.58300781 Z M55.1757812,9.57861328 C55.1757812,9.11279064 55.2673331,8.69384952 55.4504395,8.32177734 C55.6335458,7.94970517 55.8884261,7.66259867 56.2150879,7.46044922 C56.5417497,7.25829977 56.9145487,7.15722656 57.3334961,7.15722656 C57.9809603,7.15722656 58.5046367,7.38134542 58.904541,7.82958984 C59.3044454,8.27783427 59.5043945,8.87401972 59.5043945,9.61816406 L59.5043945,9.67529297 C59.5043945,10.1381859 59.4157724,10.553465 59.2385254,10.9211426 C59.0612784,11.2888202 58.807863,11.5751943 58.4782715,11.7802734 C58.14868,11.9853526 57.7700217,12.0878906 57.3422852,12.0878906 C56.6977507,12.0878906 56.1755391,11.8637718 55.7756348,11.4155273 C55.3757304,10.9672829 55.1757812,10.3740271 55.1757812,9.63574219 L55.1757812,9.57861328 Z M55.9931641,9.67529297 C55.9931641,10.2026394 56.1154773,10.625975 56.3601074,10.9453125 C56.6047376,11.26465 56.9321269,11.4243164 57.3422852,11.4243164 C57.7553732,11.4243164 58.0834949,11.2624528 58.3266602,10.9387207 C58.5698254,10.6149886 58.6914062,10.161624 58.6914062,9.57861328 C58.6914062,9.0571263 58.5676282,8.6345231 58.3200684,8.31079102 C58.0725085,7.98705893 57.7436544,7.82519531 57.3334961,7.82519531 C56.9321269,7.82519531 56.6083997,7.98486168 56.3623047,8.30419922 C56.1162097,8.62353675 55.9931641,9.08056343 55.9931641,9.67529297 Z M61.2929688,7.24511719 L61.3193359,7.84277344 C61.682619,7.3857399 62.1572236,7.15722656 62.7431641,7.15722656 C63.7480519,7.15722656 64.2548828,7.72411542 64.2636719,8.85791016 L64.2636719,12 L63.4506836,12 L63.4506836,8.85351562 C63.4477539,8.51074047 63.3693855,8.25732504 63.2155762,8.09326172 C63.0617668,7.9291984 62.8222673,7.84716797 62.4970703,7.84716797 C62.2333971,7.84716797 62.0019541,7.91747977 61.8027344,8.05810547 C61.6035146,8.19873117 61.4482427,8.38329964 61.3369141,8.61181641 L61.3369141,12 L60.5239258,12 L60.5239258,7.24511719 L61.2929688,7.24511719 Z M66.3730469,12 L65.5556641,12 L65.5556641,7.24511719 L66.3730469,7.24511719 L66.3730469,12 Z M66.3818359,5.25439453 L67.3662109,5.25439453 L66.1884766,6.54638672 L65.5336914,6.54638672 L66.3818359,5.25439453 Z M69.2822266,10.8969727 L70.4599609,7.24511719 L71.2905273,7.24511719 L69.5854492,12 L68.9658203,12 L67.2431641,7.24511719 L68.0737305,7.24511719 L69.2822266,10.8969727 Z M74.0458984,12.0878906 C73.401364,12.0878906 72.8769551,11.8762228 72.4726562,11.4528809 C72.0683574,11.0295389 71.8662109,10.4633825 71.8662109,9.75439453 L71.8662109,9.60498047 C71.8662109,9.13329842 71.9562979,8.71216006 72.1364746,8.34155273 C72.3166513,7.97094541 72.5686019,7.68090925 72.892334,7.47143555 C73.2160661,7.26196184 73.5668926,7.15722656 73.9448242,7.15722656 C74.5629914,7.15722656 75.0434553,7.36083781 75.3862305,7.76806641 C75.7290056,8.175295 75.9003906,8.75829699 75.9003906,9.51708984 L75.9003906,9.85546875 L72.6791992,9.85546875 C72.690918,10.3242211 72.8278795,10.7028794 73.0900879,10.9914551 C73.3522962,11.2800307 73.6855449,11.4243164 74.0898438,11.4243164 C74.3769546,11.4243164 74.6201162,11.3657232 74.8193359,11.2485352 C75.0185557,11.1313471 75.1928703,10.9760752 75.3422852,10.7827148 L75.8388672,11.1694336 C75.4404277,11.7817413 74.8427774,12.0878906 74.0458984,12.0878906 Z M73.9448242,7.82519531 C73.6166976,7.82519531 73.3413097,7.94457888 73.1186523,8.18334961 C72.895995,8.42212033 72.758301,8.75683378 72.7055664,9.1875 L75.0874023,9.1875 L75.0874023,9.12597656 C75.0639647,8.71288856 74.9526377,8.3928234 74.753418,8.16577148 C74.5541982,7.93871957 74.2846697,7.82519531 73.9448242,7.82519531 Z M77.7241211,12 L76.9111328,12 L76.9111328,5.25 L77.7241211,5.25 L77.7241211,12 Z M82.0219727,7.24511719 L82.0483398,7.84277344 C82.4116229,7.3857399 82.8862275,7.15722656 83.472168,7.15722656 C84.4770558,7.15722656 84.9838867,7.72411542 84.9926758,8.85791016 L84.9926758,12 L84.1796875,12 L84.1796875,8.85351562 C84.1767578,8.51074047 84.0983894,8.25732504 83.9445801,8.09326172 C83.7907707,7.9291984 83.5512712,7.84716797 83.2260742,7.84716797 C82.962401,7.84716797 82.730958,7.91747977 82.5317383,8.05810547 C82.3325185,8.19873117 82.1772467,8.38329964 82.065918,8.61181641 L82.065918,12 L81.2529297,12 L81.2529297,7.24511719 L82.0219727,7.24511719 Z M89.1542969,12 C89.1074216,11.9062495 89.0693361,11.739259 89.0400391,11.4990234 C88.6621075,11.8916035 88.2109401,12.0878906 87.6865234,12.0878906 C87.2177711,12.0878906 86.8332535,11.9553236 86.532959,11.6901855 C86.2326645,11.4250475 86.0825195,11.0888692 86.0825195,10.6816406 C86.0825195,10.186521 86.2707501,9.80200332 86.6472168,9.52807617 C87.0236835,9.25414902 87.5532192,9.1171875 88.2358398,9.1171875 L89.0268555,9.1171875 L89.0268555,8.74365234 C89.0268555,8.45947124 88.9418954,8.23315514 88.7719727,8.06469727 C88.6020499,7.89623939 88.3515642,7.81201172 88.0205078,7.81201172 C87.7304673,7.81201172 87.4873057,7.88525317 87.2910156,8.03173828 C87.0947256,8.17822339 86.996582,8.35546771 86.996582,8.56347656 L86.1791992,8.56347656 C86.1791992,8.32617069 86.2634269,8.09692493 86.4318848,7.87573242 C86.6003426,7.65453991 86.828856,7.47949283 87.1174316,7.35058594 C87.4060073,7.22167904 87.7231428,7.15722656 88.0688477,7.15722656 C88.616702,7.15722656 89.0458969,7.29418808 89.3564453,7.56811523 C89.6669937,7.84204239 89.8281249,8.21923588 89.8398438,8.69970703 L89.8398438,10.8881836 C89.8398438,11.3247092 89.8955073,11.6718737 90.0068359,11.9296875 L90.0068359,12 L89.1542969,12 Z M87.8051758,11.3803711 C88.0600599,11.3803711 88.3017567,11.3144538 88.5302734,11.1826172 C88.7587902,11.0507806 88.9243159,10.8793956 89.0268555,10.668457 L89.0268555,9.69287109 L88.3896484,9.69287109 C87.3935497,9.69287109 86.8955078,9.98437208 86.8955078,10.5673828 C86.8955078,10.8222669 86.9804679,11.0214837 87.1503906,11.1650391 C87.3203133,11.3085945 87.5385729,11.3803711 87.8051758,11.3803711 Z" id="Disponívelna" fill="#FFFFFF" fill-rule="nonzero"></path>
    </g>
</svg>