<svg width="200" height="200" viewBox="0 0 200 200" fill="none" xmlns="http://www.w3.org/2000/svg">
<path fill-rule="evenodd" clip-rule="evenodd" d="M0.475098 28.753V95.2613C0.475098 108.373 11.1164 119.014 24.2281 119.014H176.247C189.359 119.014 200 108.373 200 95.2613V28.753H0.475098ZM190.499 95.2613C190.499 103.1 184.086 109.513 176.247 109.513H24.2281C16.3896 109.513 9.97628 103.1 9.97628 95.2613V38.2542H190.499V95.2613Z" fill="black"/>
<rect x="24.228" y="95.2613" width="152.019" height="4.75059" fill="black"/>
<rect x="24.228" y="85.7601" width="152.019" height="4.75059" fill="black"/>
<path fill-rule="evenodd" clip-rule="evenodd" d="M32.8741 128.515C34.9168 130.843 36.0095 133.789 36.0095 136.924C36.0095 140.534 34.4893 143.86 31.8289 146.283L31.6864 146.425C27.0308 150.511 24.323 156.401 24.1805 162.625C24.133 165.618 24.703 168.563 25.7957 171.318H36.722C34.6793 168.943 33.6342 165.998 33.6817 162.815C33.7292 159.204 35.2969 155.926 37.9572 153.551L38.1947 153.361C42.8028 149.181 45.4631 143.242 45.5106 137.019C45.5106 134.074 44.9406 131.223 43.8479 128.563H32.8741V128.515Z" fill="black"/>
<path fill-rule="evenodd" clip-rule="evenodd" d="M161.14 128.515C163.183 130.843 164.276 133.789 164.276 136.924C164.276 140.534 162.755 143.86 160.095 146.283L159.953 146.425C155.297 150.511 152.589 156.401 152.447 162.625C152.399 165.618 152.969 168.563 154.062 171.318H164.988C162.945 168.943 161.9 165.998 161.948 162.815C161.995 159.204 163.563 155.926 166.223 153.551L166.461 153.361C171.069 149.181 173.729 143.242 173.777 137.019C173.777 134.074 173.207 131.223 172.114 128.563H161.14V128.515Z" fill="black"/>
<path fill-rule="evenodd" clip-rule="evenodd" d="M118.385 128.515C120.428 130.843 121.52 133.789 121.52 136.924C121.52 140.534 120 143.86 117.34 146.283L117.197 146.425C112.542 150.511 109.834 156.401 109.691 162.625C109.644 165.618 110.214 168.563 111.306 171.318H122.233C120.19 168.943 119.145 165.998 119.192 162.815C119.24 159.204 120.808 155.926 123.468 153.551L123.705 153.361C128.314 149.181 130.974 143.242 131.021 137.019C131.021 134.074 130.451 131.223 129.359 128.563H118.385V128.515Z" fill="black"/>
<path fill-rule="evenodd" clip-rule="evenodd" d="M75.6294 128.515C77.6722 130.843 78.7648 133.789 78.7648 136.924C78.7648 140.534 77.2446 143.86 74.5843 146.283L74.4418 146.425C69.7862 150.511 67.0784 156.401 66.9359 162.625C66.8883 165.618 67.4584 168.563 68.5511 171.318H79.4774C77.4347 168.943 76.3895 165.998 76.437 162.815C76.4845 159.204 78.0522 155.926 80.7126 153.551L80.9501 153.361C85.5582 149.181 88.2185 143.242 88.266 137.019C88.266 134.074 87.6959 131.223 86.6033 128.563H75.6294V128.515Z" fill="black"/>
</svg>
