<svg xmlns="http://www.w3.org/2000/svg" class="Rating_star__qjDRP " width="17.4" height="17.4" viewBox="0 0 15 13" version="1.1" stroke-width="1"><path d="M10.1479048,12 C10.0514025,12.0003898 9.95642098,11.9774573 9.87139387,11.9333255 L6.51593395,10.2267191 C6.50459701,10.2213859 6.49132448,10.2213859 6.47998753,10.2267191 L3.12314506,11.9333255 C2.83474418,12.079987 2.47763034,11.9734574 2.32554933,11.6953339 C2.26485519,11.5842712 2.24384036,11.4570757 2.26596123,11.3333467 L2.90331889,7.71747425 C2.90608399,7.70627465 2.9023511,7.69467506 2.893641,7.68680867 L0.178303847,5.12289911 C-0.0547948523,4.90424016 -0.0600485597,4.54465285 0.166690388,4.31972745 C0.257247712,4.22999728 0.376009149,4.17159934 0.504586723,4.15359997 L4.26098746,3.62028546 C4.27343046,3.61935215 4.28435264,3.61228574 4.29002111,3.60161945 L5.96844235,0.317735293 C6.11250453,0.035745241 6.4664385,-0.080250667 6.75898704,0.058811094 C6.87553639,0.114275804 6.96996487,0.205339258 7.02747914,0.317735293 L8.71004804,3.60695259 C8.71571651,3.61761888 8.7266387,3.6246853 8.73908169,3.6256186 L12.4940999,4.15893312 C12.8160968,4.20319822 13.0399324,4.49092141 12.9940316,4.80144379 C12.9757819,4.92570607 12.9150877,5.04063535 12.8217653,5.12823226 L10.0926026,7.68680867 C10.0838925,7.69467506 10.0801596,7.70627465 10.0829247,7.71747425 L10.7299603,11.3333467 C10.7849859,11.6440024 10.5683396,11.938792 10.2462044,11.9919901 C10.2137144,11.9973233 10.1809478,11.9998565 10.1479048,12"/></svg>