<svg xmlns="http://www.w3.org/2000/svg" viewBox="0 0 48 48"><defs><style>.cls-1{fill:#e73f44;}.cls-2{fill:#ffcd00;}.cls-3{fill:none;}</style></defs><g id="Camada_2" data-name="Camada 2"><g id="Artes_48px" data-name="Artes 48px"><g id="supersaldão"><path id="path-bp-logo" class="cls-1" d="M10.42,39.09c-6.29,1.76-10.53-7-5.06-10.61C11.37,24.75,24,16.84,30,13.16c12.26-6.49,21.65,11.77,8.24,17.3Z"/><path d="M35.58,39.32l-25.34-2a5.58,5.58,0,0,1-5.42-5.69l-.58-9.14A5.58,5.58,0,0,1,9.66,16.8l26.85-2a5.58,5.58,0,0,1,5.42,5.69L41,33.61A5.54,5.54,0,0,1,35.58,39.32Z"/><circle id="path-oval-1" class="cls-1" cx="22.45" cy="12.03" r="2.71"/><path id="super" class="cls-2" d="M14.22,21.64a3.76,3.76,0,0,0-.83-.35,2.17,2.17,0,0,0-.71-.14.77.77,0,0,0-.42.09.35.35,0,0,0-.15.29.32.32,0,0,0,.22.31q.22.11.69.27a6.26,6.26,0,0,1,.86.31,1.73,1.73,0,0,1,.6.46,1.16,1.16,0,0,1,.27.8,1.31,1.31,0,0,1-.58,1.16,2.47,2.47,0,0,1-1.46.42,4.1,4.1,0,0,1-1.18-.18,3.37,3.37,0,0,1-1-.51l.47-1a2.84,2.84,0,0,0,.86.46,2.75,2.75,0,0,0,.89.16,1.16,1.16,0,0,0,.47-.09.33.33,0,0,0,.18-.29.35.35,0,0,0-.23-.33,2.62,2.62,0,0,0-.68-.27,8.82,8.82,0,0,1-.87-.29,1.34,1.34,0,0,1-.58-.46,1.29,1.29,0,0,1-.24-.78,1.36,1.36,0,0,1,.55-1.16,2.46,2.46,0,0,1,1.42-.42,4.54,4.54,0,0,1,1,.13,2.82,2.82,0,0,1,.93.43Zm6.21-1.49v5H19v-.89a1.74,1.74,0,0,1-1.66.93A1.72,1.72,0,0,1,16,24.68a1.89,1.89,0,0,1-.49-1.4V20.15H17v2.73a1,1,0,0,0,.27.74.88.88,0,0,0,.68.26,1.1,1.1,0,0,0,.83-.35,1.36,1.36,0,0,0,.28-.91V20.15Zm4.44,0a2.17,2.17,0,0,1,2.05,1.2,2.86,2.86,0,0,1,.29,1.33A3,3,0,0,1,26.92,24a2.18,2.18,0,0,1-2.05,1.19,2,2,0,0,1-.93-.2,2.09,2.09,0,0,1-.69-.57V27H21.83v-6.8h1.42v.74a1.62,1.62,0,0,1,.67-.58A2.81,2.81,0,0,1,24.87,20.13ZM24.54,24a1.12,1.12,0,0,0,.89-.38,1.47,1.47,0,0,0,.33-1,1.39,1.39,0,0,0-.33-1,1.09,1.09,0,0,0-.89-.38,1.12,1.12,0,0,0-.89.38,1.43,1.43,0,0,0-.33,1,1.47,1.47,0,0,0,.33,1A1.12,1.12,0,0,0,24.54,24Zm5.75-3.91a2.27,2.27,0,0,1,1.82.69,2.78,2.78,0,0,1,.62,1.93,1.47,1.47,0,0,1,0,.33H29.14a1.29,1.29,0,0,0,.46.74,1.27,1.27,0,0,0,.83.26,1.65,1.65,0,0,0,.66-.13,1.55,1.55,0,0,0,.58-.4l.75.76a2.9,2.9,0,0,1-.93.66,3,3,0,0,1-1.22.22,2.68,2.68,0,0,1-1.38-.31A2.34,2.34,0,0,1,28,24a2.63,2.63,0,0,1-.31-1.34A2.6,2.6,0,0,1,28,21.33a2.25,2.25,0,0,1,.92-.89A3,3,0,0,1,30.29,20.13Zm1.13,2.13a1.1,1.1,0,0,0-.31-.77,1,1,0,0,0-.77-.29,1.06,1.06,0,0,0-.78.29,1.39,1.39,0,0,0-.4.8l2.26,0Zm3.71-1.2a1.75,1.75,0,0,1,.67-.68,2.19,2.19,0,0,1,1-.27v1.33l-.23,0a1.47,1.47,0,0,0-1,.35,1.22,1.22,0,0,0-.38,1v2.4H33.71v-5h1.42v.91Z"/><path id="saldão" class="cls-2" d="M11.93,29.68a3.94,3.94,0,0,0-.82-.36,2.49,2.49,0,0,0-.71-.13.79.79,0,0,0-.43.09.35.35,0,0,0-.15.29.32.32,0,0,0,.22.31l.69.27a5.17,5.17,0,0,1,.86.31,1.56,1.56,0,0,1,.6.46,1.16,1.16,0,0,1,.27.8,1.31,1.31,0,0,1-.58,1.16,2.5,2.5,0,0,1-1.46.42,4.16,4.16,0,0,1-1.18-.18,3,3,0,0,1-1-.51l.47-1a2.92,2.92,0,0,0,.87.47,2.7,2.7,0,0,0,.88.16,1.13,1.13,0,0,0,.47-.09.33.33,0,0,0,.18-.29.36.36,0,0,0-.22-.34,3.49,3.49,0,0,0-.69-.26c-.34-.09-.62-.2-.87-.29a1.29,1.29,0,0,1-.58-.47,1.26,1.26,0,0,1-.24-.77,1.34,1.34,0,0,1,.56-1.16,2.41,2.41,0,0,1,1.42-.42,4,4,0,0,1,1,.13,3,3,0,0,1,.93.42Zm4.37,3.53v-.58a1.47,1.47,0,0,1-.66.49,2.42,2.42,0,0,1-.91.18,1.81,1.81,0,0,1-1.27-.42A1.49,1.49,0,0,1,13,31.74a1.32,1.32,0,0,1,.49-1.08,2.27,2.27,0,0,1,1.42-.4h1.38v-.09a.75.75,0,0,0-.27-.62,1.18,1.18,0,0,0-.77-.23,2.93,2.93,0,0,0-1.49.45l-.45-1a8.19,8.19,0,0,1,1.11-.44,4.56,4.56,0,0,1,1.14-.14,2.37,2.37,0,0,1,1.55.47A1.61,1.61,0,0,1,17.66,30l0,3.24-1.38,0Zm-1.17-1A1.29,1.29,0,0,0,15.9,32a.79.79,0,0,0,.38-.53V31H15.15a1.09,1.09,0,0,0-.62.14.45.45,0,0,0-.2.42.58.58,0,0,0,.22.47A.82.82,0,0,0,15.13,32.23ZM19,26.33h1.42v6.88H19Zm7.79,0v6.88H25.34v-.73a1.53,1.53,0,0,1-.67.57,1.91,1.91,0,0,1-.91.2,2.18,2.18,0,0,1-2.06-1.19,3.22,3.22,0,0,1,0-2.67,2,2,0,0,1,.82-.89,2.24,2.24,0,0,1,1.22-.31,1.92,1.92,0,0,1,1.62.78V26.35h1.45v0ZM24.1,32.1a1.11,1.11,0,0,0,.88-.38,1.41,1.41,0,0,0,.34-1,1.44,1.44,0,0,0-.34-1,1.1,1.1,0,0,0-.88-.37,1.15,1.15,0,0,0-.89.37,1.51,1.51,0,0,0-.36,1,1.47,1.47,0,0,0,.36,1A1.12,1.12,0,0,0,24.1,32.1Zm7,1.11v-.58a1.47,1.47,0,0,1-.66.49,2.43,2.43,0,0,1-.92.18,1.8,1.8,0,0,1-1.26-.42,1.49,1.49,0,0,1-.47-1.14,1.32,1.32,0,0,1,.49-1.08,2.27,2.27,0,0,1,1.42-.4h1.38v-.09a.75.75,0,0,0-.27-.62,1.18,1.18,0,0,0-.77-.23,2.93,2.93,0,0,0-1.49.45l-.45-1a8.19,8.19,0,0,1,1.11-.44,4.56,4.56,0,0,1,1.14-.14,2.37,2.37,0,0,1,1.55.47A1.61,1.61,0,0,1,32.45,30l0,3.24-1.38,0Zm-1.18-1a1.3,1.3,0,0,0,.78-.22.82.82,0,0,0,.38-.53V31H29.94a1.15,1.15,0,0,0-.63.14.46.46,0,0,0-.19.42.58.58,0,0,0,.22.47A.81.81,0,0,0,29.91,32.23Zm2-6a2.17,2.17,0,0,1-.2,1,.69.69,0,0,1-.67.36,1.11,1.11,0,0,1-.37-.07,2.73,2.73,0,0,1-.45-.2.76.76,0,0,0-.22-.11.83.83,0,0,0-.18-.05.24.24,0,0,0-.2.09.62.62,0,0,0-.07.29h-.84a2.2,2.2,0,0,1,.2-1,.7.7,0,0,1,.67-.35,1.1,1.1,0,0,1,.37.06,4,4,0,0,1,.45.2,1,1,0,0,0,.42.18.21.21,0,0,0,.2-.09.62.62,0,0,0,.07-.29l.82,0ZM36,28.17a2.94,2.94,0,0,1,1.4.31,2.35,2.35,0,0,1,.93.89,2.6,2.6,0,0,1,.33,1.33A2.7,2.7,0,0,1,38.31,32a2.22,2.22,0,0,1-.93.89,2.86,2.86,0,0,1-1.4.31,3,3,0,0,1-1.42-.31,2.37,2.37,0,0,1-.94-.89,2.85,2.85,0,0,1,0-2.66,2.24,2.24,0,0,1,.94-.89A3,3,0,0,1,36,28.17Zm0,1.18a1.15,1.15,0,0,0-.89.37,1.49,1.49,0,0,0-.33,1,1.45,1.45,0,0,0,.33,1,1.09,1.09,0,0,0,.89.38,1.11,1.11,0,0,0,.88-.38,1.38,1.38,0,0,0,.34-1,1.44,1.44,0,0,0-.34-1A1.17,1.17,0,0,0,36,29.35Z"/><path id="path-oval-1-2" data-name="path-oval-1" class="cls-1" d="M38.37,9.47a.85.85,0,1,1,0,1.69A.85.85,0,1,1,38.37,9.47Z"/><g id="percent"><path id="path-discount" d="M33.51,8.67C37,8.7,37,14,33.51,14S30,8.7,33.51,8.67Z"/><path id="_" data-name="%" class="cls-2" d="M32.64,10.16c.85,0,.82,1.4,0,1.36S31.8,10.12,32.64,10.16Zm0,.31c-.35,0-.38.76,0,.76S33,10.45,32.64,10.47Zm1.49-.31h.4l-1.6,2.24h-.4Zm.29.91c.84,0,.82,1.4,0,1.36S33.6,11,34.42,11.07Zm0,.29c-.36,0-.38.76,0,.76S34.8,11.38,34.42,11.36Z"/></g><path id="path-bp-logo-2" data-name="path-bp-logo" class="cls-1" d="M10.42,39.09c-6.29,1.76-10.53-7-5.06-10.61C11.37,24.75,24,16.84,30,13.16c12.26-6.49,21.65,11.77,8.24,17.3Z"/><path d="M35.58,39.32l-25.34-2a5.58,5.58,0,0,1-5.42-5.69l-.58-9.14A5.58,5.58,0,0,1,9.66,16.8l26.85-2a5.58,5.58,0,0,1,5.42,5.69L41,33.61A5.54,5.54,0,0,1,35.58,39.32Z"/><circle id="path-oval-1-3" data-name="path-oval-1" class="cls-1" cx="22.45" cy="12.03" r="2.71"/><path id="path-oval-1-4" data-name="path-oval-1" class="cls-1" d="M38.37,9.47a.85.85,0,1,1,0,1.69A.85.85,0,1,1,38.37,9.47Z"/><g id="percent-2" data-name="percent"><path id="path-discount-2" data-name="path-discount" d="M33.51,8.67C37,8.7,37,14,33.51,14S30,8.7,33.51,8.67Z"/><path id="_2" data-name="%" class="cls-2" d="M32.64,10.16c.85,0,.82,1.4,0,1.36S31.8,10.12,32.64,10.16Zm0,.31c-.35,0-.38.76,0,.76S33,10.45,32.64,10.47Zm1.49-.31h.4l-1.6,2.24h-.4Zm.29.91c.84,0,.82,1.4,0,1.36S33.6,11,34.42,11.07Zm0,.29c-.36,0-.38.76,0,.76S34.8,11.38,34.42,11.36Z"/></g><path class="cls-2" d="M10.71,25.08a3,3,0,0,1-1-.4l.49-1a3.31,3.31,0,0,0,.82.36,3.72,3.72,0,0,0,.93.13c.63,0,.94-.16.94-.47a.35.35,0,0,0-.25-.31,3.14,3.14,0,0,0-.77-.15,6.76,6.76,0,0,1-1-.23,1.54,1.54,0,0,1-.68-.42,1.19,1.19,0,0,1-.29-.89,1.44,1.44,0,0,1,.26-.84,1.83,1.83,0,0,1,.8-.58,3.68,3.68,0,0,1,1.25-.2,6.35,6.35,0,0,1,1.06.11,2.51,2.51,0,0,1,.87.34l-.49,1a3,3,0,0,0-1.44-.38,1.46,1.46,0,0,0-.71.14.39.39,0,0,0-.25.33.35.35,0,0,0,.25.33,5.23,5.23,0,0,0,.8.18,7,7,0,0,1,1,.22,1.76,1.76,0,0,1,.69.42,1.17,1.17,0,0,1,.28.87,1.27,1.27,0,0,1-.28.84,1.87,1.87,0,0,1-.83.58,3.66,3.66,0,0,1-1.28.2A7.1,7.1,0,0,1,10.71,25.08Z"/><path class="cls-2" d="M20.14,20.11v5H18.77v-.6a2.17,2.17,0,0,1-.69.51,2.29,2.29,0,0,1-.87.18,2.17,2.17,0,0,1-1.57-.58A2.31,2.31,0,0,1,15.06,23V20.11h1.46v2.64c0,.82.34,1.22,1,1.22a1.12,1.12,0,0,0,.84-.33,1.42,1.42,0,0,0,.31-1V20.11Z"/><path class="cls-2" d="M25.16,20.38a2.34,2.34,0,0,1,.91.91,2.87,2.87,0,0,1,0,2.71,2.34,2.34,0,0,1-.91.91,2.5,2.5,0,0,1-1.29.33,1.94,1.94,0,0,1-1.51-.6V27H20.9V20.11h1.4v.58A1.88,1.88,0,0,1,23.87,20,2.62,2.62,0,0,1,25.16,20.38Zm-.6,3.28a1.37,1.37,0,0,0,.36-1,1.42,1.42,0,0,0-.36-1,1.33,1.33,0,0,0-1.86,0,1.37,1.37,0,0,0-.36,1,1.4,1.4,0,0,0,.36,1,1.33,1.33,0,0,0,1.86,0Z"/><path class="cls-2" d="M32.47,23H28.65a1.1,1.1,0,0,0,.49.73,1.61,1.61,0,0,0,.95.27,2,2,0,0,0,.69-.11,1.87,1.87,0,0,0,.58-.38l.78.84a2.65,2.65,0,0,1-2.09.83,3.17,3.17,0,0,1-1.51-.34,2.36,2.36,0,0,1-1-.93,2.64,2.64,0,0,1,0-2.66,2.59,2.59,0,0,1,.95-.94A2.84,2.84,0,0,1,29.85,20a2.93,2.93,0,0,1,1.33.31,2.26,2.26,0,0,1,.93.91,2.85,2.85,0,0,1,.34,1.38S32.47,22.8,32.47,23Zm-3.42-1.62a1.24,1.24,0,0,0-.42.78h2.48a1.07,1.07,0,0,0-.42-.76,1.16,1.16,0,0,0-.82-.29A1.25,1.25,0,0,0,29.05,21.42Z"/><path class="cls-2" d="M35.33,20.22a2.54,2.54,0,0,1,1-.18V21.4a1.57,1.57,0,0,0-.33,0,1.3,1.3,0,0,0-1,.36,1.39,1.39,0,0,0-.35,1v2.38H33.22v-5h1.4v.67A1.71,1.71,0,0,1,35.33,20.22Z"/><path class="cls-2" d="M8.86,33.25a3,3,0,0,1-.95-.39l.49-1.05a3.35,3.35,0,0,0,1.75.49c.62,0,.93-.16.93-.47a.34.34,0,0,0-.24-.31,3.83,3.83,0,0,0-.78-.15,8.68,8.68,0,0,1-1-.22,1.59,1.59,0,0,1-.69-.43,1.18,1.18,0,0,1-.29-.88A1.41,1.41,0,0,1,8.33,29a1.77,1.77,0,0,1,.8-.58,3.66,3.66,0,0,1,1.24-.2,5.57,5.57,0,0,1,1.07.12,2.47,2.47,0,0,1,.87.33l-.49,1a3.07,3.07,0,0,0-1.45-.38,1.48,1.48,0,0,0-.71.14.41.41,0,0,0-.24.33.34.34,0,0,0,.24.33,5.88,5.88,0,0,0,.8.18,6.74,6.74,0,0,1,1,.22,1.71,1.71,0,0,1,.69.43,1.15,1.15,0,0,1,.29.86,1.33,1.33,0,0,1-.29.85,1.91,1.91,0,0,1-.82.57,3.5,3.5,0,0,1-1.29.2A5.21,5.21,0,0,1,8.86,33.25Z"/><path class="cls-2" d="M17.37,28.79A2.14,2.14,0,0,1,18,30.48v2.86H16.61v-.62a1.59,1.59,0,0,1-1.53.71,2.2,2.2,0,0,1-1-.2,1.37,1.37,0,0,1-.64-.53,1.3,1.3,0,0,1-.22-.78,1.32,1.32,0,0,1,.53-1.11,2.74,2.74,0,0,1,1.64-.4h1.16a.92.92,0,0,0-.29-.73,1.26,1.26,0,0,0-.87-.27,2.54,2.54,0,0,0-.8.14,2.39,2.39,0,0,0-.66.33l-.54-1a3.28,3.28,0,0,1,1-.45,4.25,4.25,0,0,1,1.18-.15A2.51,2.51,0,0,1,17.37,28.79Zm-1.25,3.47a1,1,0,0,0,.43-.52v-.51h-1c-.6,0-.89.2-.89.6a.54.54,0,0,0,.22.45,1,1,0,0,0,.6.15A1.33,1.33,0,0,0,16.12,32.26Z"/><path class="cls-2" d="M18.75,26.39h1.46v7H18.75Z"/><path class="cls-2" d="M26.47,26.39v7h-1.4v-.57a1.89,1.89,0,0,1-1.57.66,2.76,2.76,0,0,1-1.29-.31,2.34,2.34,0,0,1-.91-.91A2.76,2.76,0,0,1,21,30.83a2.8,2.8,0,0,1,.33-1.37,2.22,2.22,0,0,1,.91-.91,2.54,2.54,0,0,1,1.29-.31,1.94,1.94,0,0,1,1.51.6V26.39Zm-1.8,5.44a1.37,1.37,0,0,0,.36-1,1.42,1.42,0,0,0-.36-1,1.26,1.26,0,0,0-.91-.38,1.31,1.31,0,0,0-.93.38,1.41,1.41,0,0,0-.35,1,1.44,1.44,0,0,0,.35,1,1.27,1.27,0,0,0,.93.38A1.15,1.15,0,0,0,24.67,31.83Z"/><path class="cls-2" d="M31.38,28.79A2.14,2.14,0,0,1,32,30.48v2.86H30.63v-.62a1.62,1.62,0,0,1-1.54.71,2.23,2.23,0,0,1-1-.2,1.37,1.37,0,0,1-.64-.53,1.3,1.3,0,0,1-.22-.78,1.34,1.34,0,0,1,.53-1.11,2.77,2.77,0,0,1,1.64-.4h1.16a.92.92,0,0,0-.29-.73,1.26,1.26,0,0,0-.87-.27,2.68,2.68,0,0,0-1.46.47l-.53-1a3.11,3.11,0,0,1,1-.45,4.25,4.25,0,0,1,1.18-.15A2.51,2.51,0,0,1,31.38,28.79ZM30,27.59a2.54,2.54,0,0,1-.42-.26c-.11-.07-.18-.14-.25-.18a.3.3,0,0,0-.19-.07.41.41,0,0,0-.32.13.6.6,0,0,0-.13.4h-.73a1.62,1.62,0,0,1,.31-1,1,1,0,0,1,.78-.38.94.94,0,0,1,.44.09,3.81,3.81,0,0,1,.44.26,2.48,2.48,0,0,0,.25.18.32.32,0,0,0,.2.07.41.41,0,0,0,.31-.14.49.49,0,0,0,.13-.37h.74a1.68,1.68,0,0,1-.32,1,.93.93,0,0,1-.77.36A.8.8,0,0,1,30,27.59Zm.16,4.67a1,1,0,0,0,.42-.52v-.51h-1c-.6,0-.89.2-.89.6a.54.54,0,0,0,.22.45,1,1,0,0,0,.6.15A1.39,1.39,0,0,0,30.14,32.26Z"/><path class="cls-2" d="M34.09,33.08a2.34,2.34,0,0,1-1-.94,2.52,2.52,0,0,1-.35-1.33,2.47,2.47,0,0,1,.35-1.33,2.65,2.65,0,0,1,1-.93,3.14,3.14,0,0,1,2.84,0,2.32,2.32,0,0,1,1,.93,2.52,2.52,0,0,1,.35,1.33,2.45,2.45,0,0,1-.35,1.33,2.53,2.53,0,0,1-1,.94,3.22,3.22,0,0,1-2.84,0Zm2.35-1.25a1.37,1.37,0,0,0,.36-1,1.42,1.42,0,0,0-.36-1,1.33,1.33,0,0,0-1.86,0,1.37,1.37,0,0,0-.36,1,1.4,1.4,0,0,0,.36,1,1.24,1.24,0,0,0,.93.38A1.17,1.17,0,0,0,36.44,31.83Z"/><rect class="cls-3" width="48" height="48"/></g></g></g></svg>