<svg xmlns="http://www.w3.org/2000/svg" viewBox="0 0 64 64"><path fill="#444" d="M52.46 19.394zm-12.589-3.91c-4.638 0-8.395 3.733-8.395 8.339 0 .654.075 1.29.218 1.901a23.88 23.88 0 01-17.303-8.714 8.238 8.238 0 00-1.136 4.192 8.314 8.314 0 003.732 6.941 8.413 8.413 0 01-3.802-1.042v.105c0 4.041 2.895 7.411 6.732 8.178a8.473 8.473 0 01-3.791.142 8.396 8.396 0 007.843 5.791 16.902 16.902 0 01-10.426 3.571c-.677 0-1.346-.041-2.003-.116a23.882 23.882 0 0012.868 3.746c15.443 0 23.887-12.706 23.887-23.726 0-.363-.007-.721-.023-1.079a16.996 16.996 0 004.188-4.316 16.87 16.87 0 01-4.82 1.313 8.377 8.377 0 003.691-4.614 16.877 16.877 0 01-5.329 2.023 8.416 8.416 0 00-6.13-2.635z"/></svg>