<svg xmlns="http://www.w3.org/2000/svg" viewBox="0 0 64 64"><path fill="#444" d="M27.612 25.579l10.068 6.716 1.411-.729-11.479-5.987z"/><path fill="#444" d="M52.82 23.513s-.418-2.926-1.691-4.214c-1.616-1.691-3.427-1.699-4.255-1.797-5.948-.429-14.867-.429-14.867-.429h-.018s-8.919 0-14.864.429c-.831.098-2.641.108-4.258 1.797-1.274 1.289-1.689 4.214-1.689 4.214s-.425 3.435-.425 6.871v3.22c0 3.436.425 6.871.425 6.871s.415 2.926 1.689 4.213c1.617 1.69 3.742 1.637 4.685 1.812 3.401.325 14.448.427 14.448.427s8.928-.015 14.876-.442c.828-.098 2.639-.108 4.255-1.797 1.273-1.289 1.691-4.213 1.691-4.213s.426-3.435.426-6.871v-3.22c0-3.437-.427-6.871-.427-6.871zM27.614 37.506l-.003-11.927 11.479 5.986-11.476 5.941z"/></svg>